<svg xmlns="http://www.w3.org/2000/svg" width="1500" height="1500" viewBox="0 0 1500 1500" id="insta">
  <defs>
    <linearGradient id="linear-gradient" x1=".185" x2=".834" y1=".132" y2=".876" gradientUnits="objectBoundingBox">
      <stop offset="0" stop-color="#9998e6"></stop>
      <stop offset="1" stop-color="#c12674"></stop>
    </linearGradient>
    <linearGradient id="linear-gradient-2" x1=".143" x2=".823" y1=".172" y2=".886" gradientUnits="objectBoundingBox">
      <stop offset="0" stop-color="#5e5da9"></stop>
      <stop offset="1" stop-color="#ff69b5"></stop>
    </linearGradient>
    <clipPath id="clip-path">
      <rect id="Rectangle_12" width="499.619" height="499.619" fill="none"></rect>
    </clipPath>
    <clipPath id="clip-Insta">
      <rect width="1500" height="1500"></rect>
    </clipPath>
    <filter id="Ellipse_1" width="1260" height="1260" x="120" y="123" filterUnits="userSpaceOnUse">
      <feOffset dy="3"></feOffset>
      <feGaussianBlur result="blur" stdDeviation="3"></feGaussianBlur>
      <feFlood flood-opacity=".161"></feFlood>
      <feComposite in2="blur" operator="in"></feComposite>
      <feComposite in="SourceGraphic"></feComposite>
    </filter>
    <filter id="Ellipse_2" width="1078" height="1078" x="211" y="221" filterUnits="userSpaceOnUse">
      <feOffset dy="10"></feOffset>
      <feGaussianBlur result="blur-2" stdDeviation="20"></feGaussianBlur>
      <feFlood flood-color="#ed3894" flood-opacity=".122"></feFlood>
      <feComposite in2="blur-2" operator="in"></feComposite>
      <feComposite in="SourceGraphic"></feComposite>
    </filter>
  </defs>
  <g id="Insta" clip-path="url(#clip-Insta)">
    <g filter="url(#Ellipse_1)">
      <circle id="Ellipse_1-2" cx="621" cy="621" r="621" fill="url(#linear-gradient)" transform="translate(129 129)"></circle>
    </g>
    <g filter="url(#Ellipse_2)">
      <circle id="Ellipse_2-2" cx="479" cy="479" r="479" fill="url(#linear-gradient-2)" transform="translate(271 271)"></circle>
    </g>
    <g id="Group_23" transform="translate(501.069 501.069)">
      <g id="Group_22" clip-path="url(#clip-path)">
        <path id="Path_14" fill="#fff" d="M353.931,82.09a29.29,29.29,0,1,0,29.292,29.289A29.29,29.29,0,0,0,353.931,82.09" transform="translate(28.148 7.118)"></path>
        <path id="Path_15" fill="#fff" d="M241.583,116.656A123.039,123.039,0,1,0,364.623,239.7a123.18,123.18,0,0,0-123.04-123.04m0,201.854A78.815,78.815,0,1,1,320.4,239.7a78.9,78.9,0,0,1-78.812,78.814" transform="translate(10.278 10.115)"></path>
        <path id="Path_16" fill="#fff" d="M349.54,499.619H150.07C67.32,499.619,0,432.3,0,349.549V150.071C0,67.318,67.32,0,150.07,0H349.54c82.749,0,150.079,67.318,150.079,150.071V349.549c0,82.749-67.33,150.07-150.079,150.07M150.07,47.005A103.178,103.178,0,0,0,47,150.071V349.549A103.18,103.18,0,0,0,150.07,452.617H349.54A103.185,103.185,0,0,0,452.613,349.549V150.071A103.182,103.182,0,0,0,349.54,47.005Z"></path>
      </g>
    </g>
  </g>
</svg>
